<?xml version="1.0" encoding="UTF-8"?>
<svg xmlns="http://www.w3.org/2000/svg" id="Calque_2" data-name="Calque 2" viewBox="0 0 243.85 243.85">
  <defs>
    <style>
      .cls-1 {
        fill: #b466dd;
      }

      .cls-1, .cls-2 {
        stroke-width: 0px;
      }

      .cls-3 {
        font-family: FranklinGothic-Medium, 'Franklin Gothic Medium';
        font-size: 72px;
        font-weight: 500;
      }

      .cls-3, .cls-2 {
        fill: #fff;
      }
    </style>
  </defs>
  <g id="Calque_1-2" data-name="Calque 1">
    <path class="cls-1" d="m243.85,243.85H0V0h159.87c46.38,0,83.98,37.6,83.98,83.98v159.87Z"></path>
    <text class="cls-3" transform="translate(81.62 219.86)">
      <tspan x="0" y="0">CV</tspan>
    </text>
    <g>
      <path class="cls-2" d="m80.37,51.94c0,3.48.03,6.76,0,10.04-.02,2.37-1.34,4.13-3.41,4.69-2.85.76-5.76-1.12-5.86-4.13-.17-5.21-.15-10.42-.01-15.63.07-2.58,2.11-4.26,4.74-4.27,4.88-.03,9.77-.03,14.65,0,2.78.02,4.74,1.96,4.77,4.61.03,2.64-1.9,4.62-4.68,4.68-2.74.06-5.49.02-8.23.02-.59,0-1.18,0-1.95,0Z"></path>
      <path class="cls-2" d="m163.55,117.69c0-3.38,0-6.49,0-9.61,0-3.22,1.76-5.21,4.6-5.26,2.82-.05,4.71,1.99,4.72,5.15.02,4.61.02,9.22,0,13.83-.02,3.37-1.84,5.19-5.18,5.2-4.61.01-9.22,0-13.83,0-3.16,0-5.21-1.86-5.19-4.68.01-2.79,2.07-4.61,5.25-4.63,3.12-.01,6.24,0,9.64,0Z"></path>
      <path class="cls-2" d="m144.91,85.28c-.04,12.76-10.38,23.04-23.12,22.97-12.63-.07-22.89-10.45-22.81-23.1.08-12.65,10.42-22.85,23.11-22.78,12.59.06,22.86,10.37,22.82,22.92Zm-23,13.58c7.55,0,13.65-6.1,13.62-13.61-.03-7.42-6.12-13.51-13.55-13.54-7.42-.03-13.58,6.07-13.61,13.47-.03,7.56,6.03,13.69,13.53,13.68Z"></path>
    </g>
  </g>
</svg>
