<?xml version="1.0" encoding="UTF-8"?>
<!-- Generator: Adobe Illustrator 27.9.0, SVG Export Plug-In . SVG Version: 6.00 Build 0)  -->
<svg xmlns="http://www.w3.org/2000/svg" xmlns:xlink="http://www.w3.org/1999/xlink" version="1.1" id="Calque_1" x="0px" y="0px" viewBox="0 0 22.8 28.3" style="enable-background:new 0 0 22.8 28.3;" xml:space="preserve">
<g id="Empty">
</g>
<g id="Image_de_base">
</g>
<g id="grille">
	<g>
		<g>
			<rect x="4.9" y="13.9" width="1.1" height="4.4"></rect>
		</g>
		<g>
			<rect x="4.9" y="11.7" width="1.1" height="1.1"></rect>
		</g>
		<g>
			<rect x="6.1" y="10.6" width="1.1" height="1.1"></rect>
		</g>
		<g>
			<rect x="7.2" y="11.7" width="1.1" height="1.1"></rect>
		</g>
		<g>
			<rect x="10.6" y="6.3" width="1.1" height="1.1"></rect>
		</g>
		<g>
			<rect x="10.6" y="8.5" width="1.1" height="1.1"></rect>
		</g>
		<g>
			<rect x="9.5" y="9.5" width="1.1" height="1.1"></rect>
		</g>
		<g>
			<rect x="8.3" y="10.6" width="1.1" height="1.1"></rect>
		</g>
		<g>
			<rect x="9.5" y="11.7" width="1.1" height="1.1"></rect>
		</g>
		<g>
			<rect x="10.6" y="10.6" width="1.1" height="1.1"></rect>
		</g>
		<g>
			<rect x="11.7" y="11.7" width="1.1" height="1.1"></rect>
		</g>
		<g>
			<path d="M19.6,9.5v-1h-1.1v1.1H14V5.2h1.1V4.1H14V3H2.7v24h18V9.5H19.6z M19.6,11.7h-1.1v1.1h1.1v1.1h-1.1V15h1.1v1.1h-1.1v1.1     h1.1v1.1h-1.1v1.1h1.1v1.1h-1.1v1.1h1.1v1.1h-1.1v1.1h1.1v1.1h-1.1V26h-1.1v-1.1h-1.1V26h-1.1v-1.1h-1.1V26H13v-1.1h-1.3V26h-1.1     v-1.1H9.5V26H8.4v-1.1H7.3V26H6.2v-1.1H4.9V26H3.8V11.7h1.1v-1.1H3.8V9.5h1.1v-1H3.8V7.4h1.1V6.3H3.8V5.2h1.1V4.1H6v1.1h1.1V4.1     h1.1v1.1h1.1V4.1h1.1v1.1h1.3V4.1h1.1v1.1h-1.1v1.1h1.1v1.1h-1.1v1.1h1.1v1.1h-1.1v1.1h1.1v1.1h1.1v-1.1H15v1.1h1.1v-1.1h1.1v1.1     h1.1v-1.1h1.1v1H19.6z"></path>
		</g>
		<g>
			<rect x="16.2" y="19.4" width="1.1" height="4.4"></rect>
		</g>
		<g>
			<path d="M11.7,19.4v4.4h3.4v-4.4H11.7z M13.9,22.6h-1.1v-2.2h1.1V22.6z"></path>
		</g>
		<g>
			<rect x="9.5" y="19.4" width="1.1" height="4.4"></rect>
		</g>
		<g>
			<path d="M4.9,19.4v4.4h3.4v-4.4H4.9z M7.2,22.6H6.1v-2.2h1.1V22.6z"></path>
		</g>
		<g>
			<path d="M7.2,13.9v4.4h3.4v-4.4H7.2z M9.5,17.2H8.4V15h1.1V17.2z"></path>
		</g>
		<g>
			<path d="M11.7,13.9v4.4h3.4v-4.4H11.7z M13.9,17.2h-1.1V15h1.1V17.2z"></path>
		</g>
		<g>
			<rect x="16.2" y="13.9" width="1.1" height="4.4"></rect>
		</g>
		<g>
			<rect x="13.9" y="11.7" width="1.1" height="1.1"></rect>
		</g>
		<g>
			<rect x="16.2" y="11.7" width="1.1" height="1.1"></rect>
		</g>
		<g>
			<rect x="17.3" y="7.4" width="1.1" height="1.1"></rect>
		</g>
		<g>
			<rect x="16.2" y="6.3" width="1.1" height="1.1"></rect>
		</g>
		<g>
			<rect x="15.1" y="5.2" width="1.1" height="1.1"></rect>
		</g>
		<g>
			<rect x="7.2" y="5.2" width="1.1" height="1.1"></rect>
		</g>
		<g>
			<rect x="9.5" y="5.2" width="1.1" height="1.1"></rect>
		</g>
		<g>
			<rect x="9.5" y="7.4" width="1.1" height="1.1"></rect>
		</g>
		<g>
			<rect x="8.3" y="6.3" width="1.1" height="1.1"></rect>
		</g>
		<g>
			<rect x="7.2" y="7.4" width="1.1" height="1.1"></rect>
		</g>
		<g>
			<rect x="8.3" y="8.5" width="1.1" height="1.1"></rect>
		</g>
		<g>
			<rect x="7.2" y="9.5" width="1.1" height="1.1"></rect>
		</g>
		<g>
			<rect x="6.1" y="8.5" width="1.1" height="1.1"></rect>
		</g>
		<g>
			<rect x="4.9" y="9.5" width="1.1" height="1.1"></rect>
		</g>
		<g>
			<rect x="4.9" y="7.4" width="1.1" height="1.1"></rect>
		</g>
		<g>
			<rect x="6.1" y="6.3" width="1.1" height="1.1"></rect>
		</g>
		<g>
			<rect x="4.9" y="5.2" width="1.1" height="1.1"></rect>
		</g>
	</g>
</g>
</svg>
